PathFileType	4	(X/Y/Z)	15_coords_data.trc
DataRate	CameraRate	NumFrames	NumMarkers	Units	OrigDataRate	OrigDataStartFrame	OrigNumFrames
30.0	30.0	7	21	m	30.0	39	68
Frame#	Time	THUMB_TIP	THUMB_IP	THUMB_MCP	THUMB_CMC	INDEX_TIP	INDEX_DIP	INDEX_PIP	INDEX_MCP	MIDDLE_TIP	MIDDLE_DIP	MIDDLE_PIP	MIDDLE_MCP	RING_TIP	RING_DIP	RING_PIP	RING_MCP	PINKY_TIP	PINKY_DIP	PINKY_PIP	PINKY_MCP	WRIST
X1	Y1	Z1	X2	Y2	Z2	X3	Y3	Z3	X4	Y4	Z4	X5	Y5	Z5	X6	Y6	Z6	X7	Y7	Z7	X8	Y8	Z8	X9	Y9	Z9	X10	Y10	Z10	X11	Y11	Z11	X12	Y12	Z12	X13	Y13	Z13	X14	Y14	Z14	X15	Y15	Z15	X16	Y16	Z16	X17	Y17	Z17	X18	Y18	Z18	X19	Y19	Z19	X20	Y20	Z20	X21	Y21	Z21
37	1.2666666666666608	0.4852972563668372	0.028462314897994667	-0.159440587330279	0.47933492546556344	0.0168876609900257	-0.1405070721486109	0.46230191701211765	0.004095359523546449	-0.11781227877621914	0.4664411834884793	-0.019365443470281574	-0.08009826021650501	0.5530261557485624	0.05282906221390349	-0.1602515819434371	0.5399036386435769	0.05448110137846551	-0.1478794232220127	0.5213040858840541	0.05283960103708418	-0.13104576804035434	0.4915174509361794	0.03445363178840544	-0.10678986963875534	0.5800237977948609	0.04455223509463835	-0.1458029700073607	0.5667440624174618	0.04523553348845544	-0.13350737194906112	0.5445082422521291	0.044599531328819	-0.11467725371183471	0.5095846516086142	0.03131717502099951	-0.0901809325905657	0.5841225127294366	0.023333489398974394	-0.1350311328692958	0.5732840852650494	0.026017976949682553	-0.1208776168153497	0.556572224717681	0.027740864310190738	-0.10249487068784424	0.5243424540874414	0.019438509128588355	-0.07953765793105091	0.5839385421320222	-0.018651523360303957	-0.11564981782772937	0.5743214363768939	-0.012120180233916478	-0.10308586805625755	0.5602589494803133	-0.005340887346228951	-0.08904664908843574	0.5302104544653727	-9.221809557846683e-05	-0.06980027619808649	0.4622830810018608	-0.023011742144276925	-0.051989820119430985
38	1.299999999999994	0.48028623545952875	0.033947552872404585	-0.1577136158231745	0.47578247423230036	0.020978196523587345	-0.1392877662985119	0.4599403964330927	0.007049842037777032	-0.11640000729240876	0.4651260125161748	-0.018376425956502684	-0.08011634317586797	0.552709213972459	0.06025115913679835	-0.15871933740976954	0.5395791975925159	0.059620213881894424	-0.14626122447290213	0.5212558105517364	0.05534484202550238	-0.12958835681783565	0.49235570502539694	0.03460989511394985	-0.10616866486551599	0.5815960989627218	0.04997801488734088	-0.14382967725201717	0.5679721680365333	0.048827114814858796	-0.13195264331497694	0.5454581846134108	0.0456648766508958	-0.11371722858929162	0.5106987218841906	0.030289857597102787	-0.09023241517995292	0.5856827153704695	0.026520018279094337	-0.13496487688657874	0.5744476208750784	0.027631775973869566	-0.1209101038002659	0.5574191235624159	0.027510287183796334	-0.10273882154648606	0.5252016406765804	0.017536628665283382	-0.08043902858204369	0.5857984298224265	-0.017972487261649572	-0.11657848058688858	0.575560107001433	-0.01241114799335774	-0.1040386141060971	0.5609798185824646	-0.006589105937448547	-0.0900983474329333	0.530558277780517	-0.0023599290296909547	-0.07118995329386543	0.4622830810018609	-0.023011742144276925	-0.051989820119430985
39	1.3333333333333275	0.4757858371502359	0.03895089718828726	-0.15561704853310893	0.4726292825228291	0.024707523809271326	-0.13786423248409468	0.45791036648905314	0.009648838971937801	-0.11494241925388729	0.4639372975901802	-0.017481501357372586	-0.08004957277902852	0.5521315877395953	0.06699423638734414	-0.15668903432962472	0.5390621516297399	0.06419566742643479	-0.1444678293341488	0.52106553255563	0.057467758870162755	-0.12825466242080866	0.4930185144051956	0.03465033301031217	-0.10575208603499395	0.5827569355085788	0.05535472313553824	-0.1413308167985212	0.5688410037169616	0.052391402561309364	-0.13012521223895335	0.5461029437578566	0.046752233148061206	-0.11278768220653992	0.5115404349967252	0.029350276652332474	-0.09045490765303937	0.5870479653693003	0.02994256661449124	-0.13438403141421887	0.575388154724141	0.02948125945983493	-0.12064226983034276	0.5579991709402237	0.02750466319880296	-0.10292515129533428	0.5258030788727593	0.01586917011280564	-0.08141357789334738	0.5876962987091476	-0.01692059726888706	-0.11694086642685808	0.5767589223337912	-0.012338650358995618	-0.10459665480607289	0.5615795844690524	-0.007492160400722314	-0.09092510565930592	0.5307074009338271	-0.004258364111912605	-0.07255844302479772	0.4622830810018608	-0.023011742144276925	-0.05198982011943101
40	1.3666666666666607	0.47214557748539476	0.04333448873252965	-0.15333733946228945	0.4700840734136459	0.02799517733069834	-0.1363533550452038	0.45635841137980293	0.011884427933479103	-0.11353077947642268	0.46291551471422177	-0.016712983416133143	-0.07992895720496213	0.5514485874504712	0.07263579966966105	-0.15441771566432994	0.5384954943078776	0.0679720494977919	-0.1426505234599983	0.5208348460851547	0.05913621038860517	-0.1270929116705942	0.49351767430305493	0.03464007091391663	-0.10547469318099961	0.5834976894592461	0.06014847802849388	-0.13854662926967487	0.5693739989356841	0.0555778811429124	-0.1281720926484973	0.5464951198067952	0.04773536505866516	-0.11190982400989635	0.5121286925150208	0.028573176766636732	-0.09074600733945554	0.588143476080441	0.03323986458061423	-0.13337830090695765	0.5760758729142661	0.031340295954884856	-0.12012067695468515	0.5583452995100754	0.027644192706311244	-0.10302841067620444	0.5261727097217873	0.014512561486760056	-0.08235945903785902	0.5894792011309078	-0.015649788146467447	-0.11676738566119738	0.57784369668433	-0.011969251557098382	-0.1047645240570638	0.5620520823864202	-0.008052484274432281	-0.09149441211633447	0.5307062322978298	-0.005720788228757656	-0.07380587552411738	0.4622830810018609	-0.023011742144276925	-0.05198982011943096
41	1.3999999999999937	0.4694225028779073	0.04711363074345565	-0.15096990924543346	0.46820136011348534	0.03082169170263649	-0.1348118916492329	0.4552292124336068	0.013720967458091038	-0.11227062693574716	0.4621159342503416	-0.016058630762660675	-0.07978003456765526	0.5508878314146459	0.07691575924396765	-0.1522017081675002	0.5380539470356523	0.07078307336713596	-0.14099092872614405	0.52067592596941	0.06031855658516261	-0.12614141340270557	0.4938763407414807	0.03461583547425684	-0.10528983185343313	0.5839516044118068	0.06400242475515505	-0.1357758404193965	0.5697037128107995	0.058152023756781634	-0.12624849067856242	0.546741816053198	0.048536312358185896	-0.11109266864238856	0.5125216985592331	0.027958650268726015	-0.09105043067774879	0.589012833553227	0.03608688718387043	-0.13207994818491348	0.5765969371371906	0.03298099232942042	-0.11938353399273482	0.5585612798435583	0.02784811116351471	-0.10299608221024772	0.5263820468927145	0.013453800493746448	-0.08319654633090134	0.5910105524991982	-0.014492024390036162	-0.11624833180046368	0.5787474726107581	-0.01157602205429853	-0.10466758044195046	0.5624027464836194	-0.008426954783480212	-0.09187127932980504	0.5306171729013557	-0.006820378350190559	-0.07490131541674683	0.4622830810018608	-0.023011742144276925	-0.05198982011943096
42	1.4333333333333271	0.4674005677741333	0.05031974546638218	-0.1486623302088016	0.46682140216562784	0.03320086061934446	-0.13334540007277926	0.4544454903775551	0.015191023137723136	-0.11118005411790108	0.4615698476996519	-0.015534063700172962	-0.07963480770024209	0.5504517622878687	0.08004608293881976	-0.15023803500211722	0.5377100406392422	0.07280089850899818	-0.13960056199360646	0.5205307528755011	0.06113488536107903	-0.12543066283506787	0.494072720381738	0.03461876809647657	-0.105169761182653	0.5841798461176722	0.06685305507861605	-0.13336530122529272	0.5698606726266462	0.06006398966817583	-0.12459775530943568	0.5468522952631548	0.04914971840256399	-0.1104237366894456	0.5127211514728803	0.0275237882029159	-0.09135721924216247	0.589613302295925	0.03829724845745097	-0.13084170801561706	0.5769311517629295	0.03429231091463858	-0.11867110683339874	0.558649540784881	0.02806054825797355	-0.1029508074329962	0.5264290665875809	0.012704315673248368	-0.08395744024060658	0.5920613624328926	-0.01377266042581582	-0.1158435677110432	0.5793065646396917	-0.011417620603939804	-0.10467356678481518	0.5625428801838678	-0.008810764137587968	-0.09230444386403353	0.5304466841067326	-0.007560453374040321	-0.07589851897780242	0.4622830810018609	-0.023011742144276925	-0.05198982011943096
43	1.4666666666666603	0.46585483318219456	0.052867997365602215	-0.1466054157724216	0.4657437866763843	0.03507090222679887	-0.1320709369962861	0.4538510729238019	0.01626899156538608	-0.1103023468931264	0.46121674713699534	-0.015165983574298325	-0.07952119712005054	0.5501129150956878	0.08214885249579806	-0.14875345055630113	0.5374259017013467	0.07412508886115154	-0.13862137731006294	0.5203674335512536	0.06163778896731087	-0.1250167516726724	0.4941156023739627	0.034662425857529544	-0.10509673061509148	0.5842918002974786	0.0686850543558456	-0.13156979716393832	0.5699230222157166	0.0613003075611992	-0.12338421647494427	0.5468712643084304	0.04956141895022692	-0.10995944453784781	0.5127703382369275	0.027253548337533795	-0.09163913693144421	0.5900055920687026	0.03979325098163555	-0.12985993209703856	0.5771352184866948	0.03519715892813846	-0.11810283119182655	0.5586715739010392	0.028216109160776104	-0.10291932857351754	0.526371324869247	0.01223225437880604	-0.0845909043970337	0.592627694867807	-0.013708440915804476	-0.11572298342684423	0.5795405021296869	-0.011678356897760978	-0.1048784389405607	0.5625110170929575	-0.009319987762004489	-0.09282660283964572	0.5302437147836359	-0.008034829492097217	-0.07676257405169384	0.4622830810018609	-0.023011742144276925	-0.05198982011943096
